
<svg version="1.0" xmlns="http://www.w3.org/2000/svg"
 width="250.000000pt" height="182.000000pt" viewBox="0 0 250.000000 182.000000"
 preserveAspectRatio="xMidYMid meet">
<g transform="translate(0.000000,182.000000) scale(0.100000,-0.100000)"
fill="#000000" stroke="none">
<path d="M501 1759 c-84 -16 -159 -75 -203 -159 -22 -42 -23 -58 -28 -281 -5
-228 -6 -237 -29 -271 -34 -48 -81 -78 -138 -86 l-48 -7 0 -45 0 -45 45 -6
c63 -7 105 -33 138 -81 l27 -41 5 -231 c5 -223 6 -233 31 -287 43 -92 145
-159 240 -159 l39 0 0 45 c0 41 -2 45 -25 45 -34 0 -94 26 -123 53 -52 49 -56
66 -62 317 -6 263 -7 269 -83 348 l-41 42 41 43 c72 73 77 92 83 352 5 216 7
233 28 270 29 50 76 83 133 93 l44 7 3 48 c3 52 4 52 -77 36z"/>
<path d="M1920 1721 l0 -48 45 -5 c27 -4 59 -16 80 -32 69 -53 69 -56 76 -311
7 -264 15 -299 85 -372 l42 -45 -33 -30 c-19 -16 -47 -55 -62 -86 -28 -56 -28
-60 -33 -287 -5 -242 -9 -264 -57 -307 -25 -23 -87 -48 -118 -48 -23 0 -25 -3
-25 -48 l0 -49 53 8 c103 14 181 72 226 169 24 52 25 66 31 285 6 255 6 258
75 311 24 18 52 29 85 32 l50 5 0 48 c0 48 -1 49 -30 49 -36 0 -96 24 -123 48
-11 9 -28 34 -38 54 -17 33 -19 60 -19 221 0 101 -5 210 -11 243 -21 115 -105
204 -218 231 -82 19 -81 19 -81 -36z"/>
<path d="M1045 1265 c-265 -41 -281 -44 -302 -70 -15 -17 -23 -39 -23 -64 0
-44 18 -101 31 -101 16 0 9 -18 -8 -23 -17 -4 -17 -4 0 -10 9 -4 23 -9 31 -11
16 -5 31 -76 22 -104 -4 -13 -23 -24 -52 -32 -34 -10 -42 -15 -31 -22 14 -7
14 -11 0 -39 -16 -32 -14 -71 6 -122 14 -36 38 -45 269 -107 l189 -51 292 63
c161 35 292 68 292 73 0 6 -16 14 -35 19 -41 9 -52 34 -42 90 5 26 14 37 35
44 15 5 28 16 29 23 0 8 7 33 16 55 15 42 12 109 -5 120 -16 10 -9 24 12 24
31 0 13 18 -31 30 l-40 11 0 55 c0 53 1 56 33 69 38 16 53 10 -175 75 -97 27
-189 49 -205 49 -15 -1 -154 -21 -308 -44z m-63 -137 l188 -63 0 -62 c0 -35
-3 -63 -6 -63 -4 0 -94 23 -201 52 -214 57 -213 56 -213 137 0 36 14 61 34 61
6 0 95 -28 198 -62z m687 0 c-1 -24 1 -53 5 -65 8 -26 17 -23 -254 -83 -102
-22 -193 -43 -202 -46 -16 -5 -18 2 -18 50 0 49 2 56 23 61 12 3 109 23 216
45 107 22 197 42 199 45 12 11 -41 3 -230 -37 -171 -35 -225 -42 -207 -24 5 5
427 94 452 95 14 1 17 -7 16 -41z m-596 -202 c115 -24 211 -47 214 -50 18 -18
-24 -13 -211 27 -113 24 -206 40 -206 36 0 -5 171 -45 360 -82 l65 -13 3 -52
c2 -29 -1 -52 -5 -52 -5 0 -103 20 -218 45 -116 25 -222 48 -237 51 -25 5 -26
7 -16 41 5 20 7 51 3 70 -6 31 -4 33 17 28 13 -3 117 -25 231 -49z m-106 -187
l183 -61 0 -63 0 -63 -167 43 c-201 52 -219 58 -232 84 -12 22 -15 104 -4 114
12 13 39 7 220 -54z m688 12 c-3 -16 -2 -46 3 -65 9 -30 7 -36 -6 -40 -10 -3
-111 -26 -227 -51 -115 -26 -218 -49 -227 -51 -15 -5 -18 1 -18 33 0 21 3 55
6 75 7 40 16 45 105 53 24 3 109 20 189 39 184 44 183 44 175 7z"/>
</g>
</svg>
